<svg width="32" height="32" viewBox="0 0 32 32" fill="none" xmlns="http://www.w3.org/2000/svg">
<circle cx="16" cy="16" r="16" fill="#3378F3"/>
<g clip-path="url(#clip0_403_2602)">
<path d="M10.6803 18.4109L19.5034 13.2725L14.0079 11.8C13.6079 11.6928 13.3704 11.2814 13.4775 10.8814C13.5847 10.4815 13.9946 10.2435 14.3961 10.3511L21.6405 12.2923C22.0405 12.3994 22.2784 12.8094 22.1709 13.2108L20.2297 20.4553C20.123 20.8537 19.7111 21.0928 19.3112 20.9856C18.9112 20.8784 18.6741 20.4655 18.7808 20.067L20.2537 14.5703L11.4125 19.6747C11.0537 19.8819 10.5954 19.7591 10.3881 19.4002C10.1808 19.0414 10.3037 18.585 10.6803 18.4109Z" fill="white"/>
</g>
<defs>
<clipPath id="clip0_403_2602">
<rect width="10" height="16" fill="white" transform="translate(19 25.043) rotate(-165)"/>
</clipPath>
</defs>
</svg>
